<?xml version="1.0" encoding="UTF-8"?>
<svg id="Capa_1" xmlns="http://www.w3.org/2000/svg" version="1.1" viewBox="0 0 70 70">
  <!-- Generator: Adobe Illustrator 29.4.0, SVG Export Plug-In . SVG Version: 2.1.0 Build 152)  -->
  <defs>
    <style>
      .st0 {
        fill: #000026;
      }

      .st1 {
        fill: #005aee;
      }
    </style>
  </defs>
  <path class="st1" d="M54.97,35.51c.15-1.05-.17-2.17-.99-2.97h0s-16.51-16.52-16.51-16.52c-1.36-1.36-3.57-1.36-4.94,0-1.36,1.36-1.36,3.57,0,4.94l14.02,14.02-14.02,14.02c-1.37,1.37-1.37,3.6,0,4.97s3.6,1.37,4.97,0l16.47-16.47c.56-.56.89-1.26.99-1.99h0Z"/>
  <path class="st0" d="M38.33,35.01c0-.9-.34-1.75-.98-2.38l-8.24-8.24c-.65-.65-1.51-.98-2.37-.98s-1.71.33-2.37.98c-.63.63-.98,1.47-.98,2.37s.35,1.73.98,2.37l5.89,5.89-5.98,5.98c-1.3,1.3-1.3,3.43,0,4.73.63.63,1.47.98,2.37.98s1.73-.35,2.37-.98l8.33-8.33c.64-.64.98-1.48.98-2.38h0Z"/>
  <path class="st0" d="M20.96,32.53c-1.37-1.37-3.58-1.37-4.95,0s-1.37,3.58,0,4.95,3.58,1.37,4.95,0,1.37-3.58,0-4.95"/>
</svg>